<svg width="1024" height="1024" viewBox="0 0 1024 1024" fill="none" xmlns="http://www.w3.org/2000/svg">
<path d="M268.782 715.828C108.203 609.474 98.398 417 246.525 294.436C337.686 219.007 461.561 187.79 578.259 197.743C654.645 204.259 757.028 238.039 807.623 299.225C818.038 308.048 824.431 318.509 832.733 328.966C892.537 404.282 900.076 528.529 845.979 609.578C831.615 645.278 767.547 700.726 734.212 720.297C619.4 787.704 497.38 798.056 370.643 768.152C324.644 787.845 278.764 807.813 233.004 828.056C244.558 790.715 257.895 753.204 268.782 715.828Z" fill="#B066F3"/>
<path d="M511.419 212.372C616.92 209.198 714.455 230.618 792.431 305.583C795.82 308.84 801.228 314.419 804.443 317.177C837.083 359.238 852.117 395.815 845.247 450.751C844.259 458.575 849.595 467.216 848.212 474.981C860.335 490.352 813.638 553.762 802.83 569.303C776.657 602.059 750.417 629.351 714.903 652.11L713.52 649.953C679.434 671.322 644.414 689.397 605.773 700.944C484.229 732.481 349.734 731.027 248.897 645.128C154.667 564.861 146.884 434.552 227.951 341.493C302.403 256.027 399.318 219.753 511.419 212.372Z" fill="url(#paint0_linear_1_97)"/>
<path d="M511.419 212.372C616.92 209.198 714.455 230.618 792.431 305.583C795.82 308.84 801.228 314.419 804.443 317.177C837.083 359.238 852.117 395.815 845.247 450.751C844.259 458.575 849.595 467.216 848.212 474.981L843.306 488.639C829.855 482.598 816.181 497.189 800.603 488.639C770.226 471.962 740.714 439.495 709.211 422.193C708.285 421.686 701.965 428.392 697.663 425.699C683.427 416.785 684.926 412.888 668.369 413.133C667.491 397.618 670.349 354.565 666.097 343.772C665.693 339.348 665.931 328.88 665.89 323.996L641.744 323.581L640.529 412.776C621.052 386.166 599.214 350.252 579.807 321.957C570.716 321.915 561.625 321.817 552.533 321.665C550.499 323.036 548.278 324.577 545.714 322.961C520.344 306.969 494.091 294.373 466.42 282.955C464.454 282.145 457.435 283.138 455.108 283.472C443.989 273.673 430.67 269.315 421.68 259.984C415.973 254.06 424.877 245.879 419.463 236.759L418.937 235.889L420.433 231.499C432.783 218.865 492.915 221.851 511.419 212.372Z" fill="url(#paint1_linear_1_97)"/>
<path d="M605.169 274.571C609.644 276.225 621.942 283.009 626.759 285.509C633.454 282.342 643.677 277.117 651.143 280.3L651.349 283.813C648.02 290.508 639.75 296.507 633.811 301.5L623.941 308.345C610.981 302.942 598.163 297.2 585.501 291.128C591.951 286.147 598.904 279.921 605.169 274.571Z" fill="#FAF8FD"/>
<path d="M552.533 321.665C561.625 321.817 570.716 321.915 579.807 321.957C599.214 350.252 621.052 386.166 640.529 412.776L641.744 323.581L665.89 323.996C665.931 328.88 665.693 339.348 666.097 343.772C665.401 381.253 664.946 418.736 664.729 456.223L638.659 456.291C618.474 425.029 597.943 393.993 577.072 363.187C577.13 394.094 576.773 424.999 576.003 455.896L551.476 455.905C551.048 411.591 553.664 365.432 552.533 321.665Z" fill="#F1E9FD"/>
<path fill-rule="evenodd" clip-rule="evenodd" d="M412.183 313.463L369.876 313.948C350.566 367.477 330.88 420.869 310.816 474.118C314.217 474.194 317.708 474.292 321.23 474.391C328.875 474.606 336.667 474.825 344 474.824L357.098 439.532L420.871 439.593C421.727 439.711 422.42 439.758 422.996 439.798C424.791 439.921 425.445 439.966 426.345 441.798C429.761 448.749 433.132 458.24 436.152 466.745L436.153 466.747C437.181 469.643 438.169 472.424 439.104 474.952C442.907 474.925 446.738 474.912 450.579 474.899C459.051 474.871 467.57 474.842 475.939 474.671L412.183 313.463ZM414.195 403.052C408.389 385.394 395.552 346.354 390.542 342.262C382.646 364.933 374.36 387.465 365.687 409.85L390.997 409.94L416.414 409.753C415.906 408.255 415.144 405.939 414.195 403.052Z" fill="#E9DDFC"/>
<path fill-rule="evenodd" clip-rule="evenodd" d="M551.684 508.451C549.974 508.528 548.559 508.593 547.555 508.628C545.77 508.646 543.281 508.62 540.333 508.589C525.032 508.429 497.376 508.139 491.699 513.214C491.723 513.47 491.746 513.717 491.768 513.954C492.216 518.765 492.317 519.845 495.668 523.751C500.723 526.733 505.381 526.623 509.676 526.521C513.876 526.421 517.728 526.33 521.265 529.144C521.278 529.435 521.292 529.707 521.304 529.962C521.502 533.971 521.504 534.022 519.622 538.109C515.265 540.533 510.237 540.141 505.832 539.798C498.591 539.233 493.038 538.8 494.935 551.234C499.541 555.27 504.802 555.023 511.055 554.73C512.395 554.668 513.78 554.603 515.214 554.577C514.583 556.858 513.95 559.208 513.31 561.582C511.769 567.302 510.189 573.165 508.501 578.56C507.534 578.631 506.549 578.677 505.561 578.724C501.045 578.939 496.456 579.157 493.203 581.704C493.057 582.798 492.919 583.571 492.816 584.147C492.666 584.992 492.591 585.413 492.678 585.796C492.764 586.175 493.007 586.518 493.491 587.199C493.843 587.695 494.322 588.369 494.959 589.367C503.26 593.653 524.295 592.066 539.174 590.943C542.704 590.677 545.888 590.436 548.472 590.307C551.102 590.29 554.194 590.367 557.542 590.45C571.492 590.796 589.894 591.253 597.888 585.534C598.307 584.718 598.645 584.089 598.916 583.586C599.49 582.519 599.761 582.015 599.858 581.48C599.945 581 599.892 580.496 599.792 579.539C599.727 578.911 599.641 578.089 599.561 576.951C595.836 574.233 591.464 574.224 586.739 574.214C585.019 574.211 583.251 574.207 581.451 574.073C581.997 561.76 582.856 549.464 584.025 537.193C582.629 537.257 580.609 537.384 578.183 537.536C566.043 538.298 543.759 539.696 538.911 537.012C538.807 533.291 539.646 532.153 541.508 529.625C541.788 529.246 542.091 528.835 542.417 528.379C549.694 523.48 559.363 524.253 568.667 524.998C577.088 525.671 585.209 526.321 590.99 522.721C591.918 517.622 591.68 515.657 591.126 511.084C591.067 510.598 591.005 510.083 590.94 509.531C586.941 506.848 562.929 507.939 551.684 508.451ZM564.568 552.775L534.139 553.17C533.865 554.279 533.589 555.386 533.312 556.492C531.728 562.837 530.149 569.162 528.991 575.607C531.608 575.558 534.38 575.53 537.218 575.502C544.815 575.426 552.891 575.344 559.758 574.845C563.884 571.084 564.058 567.357 564.334 561.42L564.344 561.206C564.46 558.397 564.535 555.585 564.568 552.775Z" fill="#D8C3F9"/>
<path fill-rule="evenodd" clip-rule="evenodd" d="M590.38 602.895C571.262 602.705 549.042 602.483 530.046 603.77L501.344 605.133C501.453 608.131 501.479 612.502 501.508 617.601C501.619 636.728 501.788 666.112 506.646 671.835C512.213 673.325 519.378 671.537 526.156 669.847C529.5 669.012 532.75 668.202 535.667 667.82C545.914 666.478 555.721 666.156 566.028 665.823C571.641 665.404 574.259 667.114 576.783 668.762C579.925 670.814 582.922 672.771 591.361 670.414C593.319 661.812 592.277 633.239 591.605 614.824C591.428 609.955 591.276 605.795 591.213 602.904L590.38 602.895ZM573.138 618.293L558.342 618.301C554.534 618.424 550.694 618.562 546.84 618.701C537.649 619.031 528.386 619.364 519.325 619.503C519.323 621.185 519.271 623.004 519.218 624.896C518.976 633.436 518.691 643.463 522.703 649.08C527.719 651.863 530.849 651.672 535.996 651.358C537.302 651.278 538.737 651.19 540.366 651.141L574.107 649.969L573.138 618.293Z" fill="#D8C3F9"/>
<path fill-rule="evenodd" clip-rule="evenodd" d="M472.72 602.446C461.052 602.624 444.02 602.882 438.644 603.676C437.896 603.746 437.049 603.803 436.145 603.864C432.01 604.144 426.693 604.503 424.361 606.507C422.944 615.931 423.513 638.792 423.917 655.007C424.026 659.397 424.123 663.301 424.165 666.318C439.78 665.58 455.408 665.134 471.041 664.979C472.276 664.984 473.387 665.042 474.41 665.095C477.841 665.272 480.285 665.399 483.118 663.346C484.207 653.838 483.11 631.701 482.298 615.327C482.046 610.24 481.822 605.709 481.699 602.287C479.622 602.341 476.444 602.39 472.72 602.446ZM464.831 618.397L439.953 619.166C439.964 619.456 439.974 619.746 439.984 620.036C440.337 629.926 440.668 639.214 441.599 649.134L465.657 649.473C465.642 647.841 465.631 646.205 465.619 644.567C465.559 635.844 465.498 627.052 464.831 618.397Z" fill="#D8C3F9"/>
<path d="M427.644 536.028C437.203 535.57 474.122 532.732 479.798 536.505C480.706 541.442 481.242 542.231 479.204 546.501C474.841 549.518 467.125 548.57 461.299 548.549C447.733 549.507 423.137 553.062 412.121 546.779C409.019 542.039 409.585 544.279 409.855 538.647C414.806 535.652 421.536 536.227 427.644 536.028Z" fill="#D8C3F9"/>
<path d="M449.645 579.516C459.566 578.913 479.219 575.877 484.943 584.902C481.087 594.102 456.15 593.423 447.51 593.715C434.62 595.101 425.914 596.986 414.058 591.547L413.388 587.08C421.619 579.244 438.626 579.924 449.645 579.516Z" fill="#D8C3F9"/>
<path d="M468.427 508.59L471.488 508.477L475.412 515.045C474.82 519.796 475.669 517.67 472.536 521.543C461.197 526.932 435.354 525.827 421.678 525.888L416.632 525.247C413.793 520.626 414.869 516.733 417.443 512.56C428.046 506.624 453.366 509.118 468.427 508.59Z" fill="#D8C3F9"/>
<path d="M415.226 558.615C429.307 558.05 469.162 555.047 480.231 559.646C483.115 564.092 482.43 562.099 481.834 568.184L478.253 569.51C465.851 570.375 421.351 575.487 414.283 568.552C413.202 563.74 413.315 563.173 415.226 558.615Z" fill="#D8C3F9"/>
<path d="M804.443 317.177C800.679 302.858 782.207 297.021 774.673 277.664L776.714 276.509C788.584 282.763 799.116 296.728 807.623 299.225C818.038 308.048 824.431 318.509 832.733 328.966C892.537 404.282 900.076 528.529 845.979 609.578C827.168 602.618 826.85 576.071 802.83 569.303C813.638 553.762 825.691 541.625 841.318 474.061C842.7 466.297 844.259 458.575 845.247 450.751C852.117 395.815 837.083 359.238 804.443 317.177Z" fill="url(#paint2_linear_1_97)"/>
<defs>
<linearGradient id="paint0_linear_1_97" x1="141.577" y1="512" x2="878.79" y2="512" gradientUnits="userSpaceOnUse">
<stop stop-color="#A95CE4"/>
<stop offset="1" stop-color="#824ACE"/>
</linearGradient>
<linearGradient id="paint1_linear_1_97" x1="141.577" y1="512" x2="878.79" y2="512" gradientUnits="userSpaceOnUse">
<stop stop-color="#A95CE4"/>
<stop offset="1" stop-color="#824ACE"/>
</linearGradient>
<linearGradient id="paint2_linear_1_97" x1="790.463" y1="227.331" x2="828.548" y2="571.113" gradientUnits="userSpaceOnUse">
<stop offset="0.211999" stop-color="#B066F3"/>
<stop offset="0.523367" stop-color="#D4A4F9"/>
<stop offset="1" stop-color="#B066F3"/>
</linearGradient>
</defs>
</svg>
